<?xml version="1.0" standalone="no"?>
<!DOCTYPE svg PUBLIC "-//W3C//DTD SVG 1.1//EN"
"http://www.w3.org/Graphics/SVG/1.1/DTD/svg11.dtd">

<svg width="282" height="136" view_box="0 0 282 136"
xmlns="http://www.w3.org/2000/svg"
xmlns:link="http://www.w3.org/1999/xlink">\n\n<desc>Généré par Mocodo 2.3.7 le Fri, 18 Dec 2020 08:33:28</desc>

<rect id="frame" x="0" y="0" width="282" height="136" fill="#f7f7f7" stroke="none" stroke-width="0"/>

<!-- Association play -->
<line x1="47" y1="68" x2="137" y2="68" stroke="#de77ae" stroke-width="2"/>
<text x="90" y="85.0" fill="#4d9221" font-family="Verdana" font-size="12">0,N</text>
<line x1="231" y1="68" x2="137" y2="68" stroke="#de77ae" stroke-width="2"/>
<text x="162" y="85.0" fill="#4d9221" font-family="Verdana" font-size="12">0,N</text>
<g id="association-play">
	<path d="M 143 43 a 14 14 90 0 1 14 14 V 68 h -40 V 57 a 14 14 90 0 1 14 -14" fill="#f1b6da" stroke="#f1b6da" stroke-width="0"/>
	<path d="M 157 68.0 v 11 a 14 14 90 0 1 -14 14 H 131 a 14 14 90 0 1 -14 -14 V 68.0 H 40" fill="#fde0ef" stroke="#fde0ef" stroke-width="0"/>
	<rect x="117" y="43" width="40" height="50" fill="none" rx="14" stroke="#de77ae" stroke-width="2"/>
	<line x1="117" y1="68" x2="157" y2="68" stroke="#de77ae" stroke-width="1"/>
	<text x="124" y="60.7" fill="#000000" font-family="Verdana" font-size="12">play</text>
</g>

<!-- Entity Player -->
<g id="entity-Player">
	<g id="frame-Player">
		<rect x="9" y="9" width="76" height="25" fill="#b8e186" stroke="#b8e186" stroke-width="0"/>
		<rect x="9" y="34.0" width="76" height="93" fill="#e6f5d0" stroke="#e6f5d0" stroke-width="0"/>
		<rect x="9" y="9" width="76" height="118" fill="none" stroke="#7fbc41" stroke-width="2"/>
		<line x1="9" y1="34" x2="85" y2="34" stroke="#7fbc41" stroke-width="1"/>
	</g>
	<text x="28" y="26.7" fill="#000000" font-family="Verdana" font-size="12">Player</text>
	<text x="14" y="51.7" fill="#000000" font-family="Verdana" font-size="12">id</text>
	<line x1="14" y1="54" x2="26" y2="54" stroke="#000000" stroke-width="1"/>
	<text x="14" y="68.8" fill="#000000" font-family="Verdana" font-size="12">name</text>
	<text x="14" y="85.8" fill="#000000" font-family="Verdana" font-size="12">email</text>
	<text x="14" y="102.8" fill="#000000" font-family="Verdana" font-size="12">password</text>
	<text x="14" y="119.8" fill="#000000" font-family="Verdana" font-size="12">victory_nb</text>
</g>

<!-- Entity Game -->
<g id="entity-Game">
	<g id="frame-Game">
		<rect x="189" y="9" width="84" height="25" fill="#b8e186" stroke="#b8e186" stroke-width="0"/>
		<rect x="189" y="34.0" width="84" height="93" fill="#e6f5d0" stroke="#e6f5d0" stroke-width="0"/>
		<rect x="189" y="9" width="84" height="118" fill="none" stroke="#7fbc41" stroke-width="2"/>
		<line x1="189" y1="34" x2="273" y2="34" stroke="#7fbc41" stroke-width="1"/>
	</g>
	<text x="213" y="26.7" fill="#000000" font-family="Verdana" font-size="12">Game</text>
	<text x="194" y="51.7" fill="#000000" font-family="Verdana" font-size="12">id</text>
	<line x1="194" y1="54" x2="206" y2="54" stroke="#000000" stroke-width="1"/>
	<text x="194" y="68.8" fill="#000000" font-family="Verdana" font-size="12">date</text>
	<text x="194" y="85.8" fill="#000000" font-family="Verdana" font-size="12">score</text>
	<text x="194" y="102.8" fill="#000000" font-family="Verdana" font-size="12">victory-type</text>
	<text x="194" y="119.8" fill="#000000" font-family="Verdana" font-size="12">winner</text>
</g>
</svg>